<svg xmlns="http://www.w3.org/2000/svg">
    <symbol id="icon-logo" viewBox="0 0 184 30" fill="none" xmlns="http://www.w3.org/2000/svg">
        <path
            d="M16.2436 7.09621C14.7531 7.93737 12.6466 7.96264 11.1376 7.15815C10.0953 6.60241 8.9154 6.28904 7.66565 6.28904C3.43204 6.28904 0 9.88465 0 14.32C0 18.7554 3.43204 22.3509 7.66565 22.3509C8.97908 22.3509 10.2154 22.0048 11.296 21.395C12.7864 20.5538 14.893 20.5286 16.4019 21.3331C17.4443 21.8888 18.6242 28 19.8739 28C24.1076 28 33 18.6066 33 14.1713C33 9.73585 24.1076 0 19.8739 0C18.5605 0 17.3242 6.48636 16.2436 7.09621Z"
            fill="#FC6D3E" />
        <path
            d="M47.064 17.424H47.4L47.768 10.944H52.76L50.776 22H43.272L41.224 10.944H46.648L47.064 17.424ZM55.9764 13.328C55.1657 13.328 54.5684 13.168 54.1844 12.848C53.8004 12.528 53.6084 12.016 53.6084 11.312C53.6084 10.608 53.8004 10.1013 54.1844 9.792C54.579 9.48267 55.1764 9.328 55.9764 9.328C57.5764 9.328 58.3764 9.97333 58.3764 11.264C58.3764 12 58.179 12.528 57.7844 12.848C57.3897 13.168 56.787 13.328 55.9764 13.328ZM53.6084 22V13.696H58.3764V22H53.6084ZM59.4715 10.08H64.2395V12.096L64.2075 12.784C64.2608 12.656 64.4368 12.56 64.7355 12.496C65.0342 12.4213 65.3542 12.384 65.6955 12.384C66.8795 12.384 67.7968 12.8107 68.4475 13.664C69.1088 14.5067 69.4395 15.7013 69.4395 17.248C69.4395 18.784 69.0982 19.9733 68.4155 20.816C67.7328 21.648 66.7622 22.064 65.5035 22.064C64.6502 22.064 63.9568 21.856 63.4235 21.44C63.3062 21.344 63.1995 21.2267 63.1035 21.088L62.7675 22H59.4715V10.08ZM63.9995 17.152V18.496C63.9995 18.6347 64.0368 18.7467 64.1115 18.832C64.1968 18.9173 64.3035 18.96 64.4315 18.96C64.5702 18.96 64.6822 18.9173 64.7675 18.832C64.8635 18.7467 64.9115 18.6347 64.9115 18.496V17.152C64.9115 17.024 64.8635 16.9173 64.7675 16.832C64.6822 16.736 64.5755 16.688 64.4475 16.688C64.3195 16.688 64.2128 16.736 64.1275 16.832C64.0422 16.9173 63.9995 17.024 63.9995 17.152ZM70.5221 17.296C70.5221 15.664 70.8901 14.4373 71.6261 13.616C72.3728 12.7947 73.5888 12.384 75.2741 12.384C76.9595 12.384 78.1328 12.7253 78.7941 13.408C79.4555 14.0907 79.7861 15.2107 79.7861 16.768L79.7061 18H75.2901V18.544C75.5568 18.608 75.9461 18.64 76.4581 18.64C77.5461 18.64 78.4261 18.592 79.0981 18.496L79.4341 18.448V21.456C79.3488 21.5093 79.2101 21.5787 79.0181 21.664C78.8368 21.7387 78.3941 21.84 77.6901 21.968C76.9861 22.096 76.2021 22.16 75.3381 22.16C73.6315 22.16 72.3995 21.7547 71.6421 20.944C70.8955 20.1333 70.5221 18.9173 70.5221 17.296ZM75.0501 16.576V17.2H75.9621V16.576C75.9621 16.4373 75.9141 16.3253 75.8181 16.24C75.7328 16.1547 75.6208 16.112 75.4821 16.112C75.3541 16.112 75.2475 16.1547 75.1621 16.24C75.0875 16.3253 75.0501 16.4373 75.0501 16.576ZM86.95 16.048V16.928C87.1633 16.9493 87.5367 16.96 88.07 16.96C89.0727 16.96 89.9687 16.928 90.758 16.864L91.142 16.832V21.616C90.1073 21.9787 88.6353 22.16 86.726 22.16C84.8273 22.16 83.3713 21.6747 82.358 20.704C81.3553 19.7333 80.854 18.2933 80.854 16.384C80.854 14.464 81.35 13.0507 82.342 12.144C83.334 11.2373 84.8113 10.784 86.774 10.784C87.5953 10.784 88.3687 10.832 89.094 10.928C89.83 11.024 90.3527 11.12 90.662 11.216L91.142 11.36V16.288C90.214 16.128 88.8167 16.048 86.95 16.048ZM101.625 15.952L101.545 17.92L101.945 17.904V21.536C101.753 21.696 101.422 21.84 100.953 21.968C100.483 22.096 100.041 22.16 99.6247 22.16C99.2087 22.16 98.8781 22.1227 98.6327 22.048C98.3874 21.9733 98.2061 21.8933 98.0887 21.808C97.9714 21.712 97.8807 21.6053 97.8167 21.488C97.7207 21.3173 97.6727 21.1733 97.6727 21.056C97.0861 21.792 96.1527 22.16 94.8727 22.16C93.1127 22.16 92.2327 21.4133 92.2327 19.92C92.2327 19.024 92.5741 18.3893 93.2567 18.016C93.9394 17.632 95.1341 17.4027 96.8407 17.328C96.8407 16.9547 96.4301 16.768 95.6087 16.768C95.0541 16.768 94.5207 16.8373 94.0087 16.976C93.5074 17.1147 93.1447 17.2533 92.9207 17.392L92.5687 17.6V13.392C92.6647 13.3173 92.8087 13.2267 93.0007 13.12C93.1927 13.0027 93.6461 12.8533 94.3607 12.672C95.0754 12.48 95.8594 12.384 96.7127 12.384C98.4194 12.384 99.6621 12.672 100.441 13.248C101.23 13.824 101.625 14.7253 101.625 15.952ZM97.0967 18.496V17.856L96.1847 18.112V18.496C96.1847 18.6347 96.2274 18.7467 96.3127 18.832C96.4087 18.9173 96.5207 18.96 96.6487 18.96C96.7874 18.96 96.8941 18.9173 96.9687 18.832C97.0541 18.7467 97.0967 18.6347 97.0967 18.496ZM107.26 12.384C108.103 12.384 108.86 12.432 109.532 12.528C110.215 12.624 110.684 12.72 110.94 12.816L111.308 12.96V16.96C110.583 16.5867 109.5 16.4 108.06 16.4V16.784C109.383 16.912 110.289 17.1413 110.78 17.472C111.271 17.8027 111.516 18.4053 111.516 19.28C111.516 20.1547 111.191 20.8533 110.54 21.376C109.889 21.8987 108.753 22.16 107.132 22.16C106.268 22.16 105.5 22.112 104.828 22.016C104.156 21.92 103.697 21.824 103.452 21.728L103.084 21.584V18.112C103.383 18.2613 103.841 18.4 104.46 18.528C105.089 18.6453 105.735 18.704 106.396 18.704V18.32C105.255 18.2133 104.391 17.952 103.804 17.536C103.217 17.12 102.924 16.448 102.924 15.52C102.924 14.5813 103.281 13.824 103.996 13.248C104.711 12.672 105.799 12.384 107.26 12.384ZM118.249 17.008V17.728H119.689V21.504C119.636 21.5573 119.545 21.6213 119.417 21.696C119.3 21.76 118.985 21.856 118.473 21.984C117.961 22.1013 117.369 22.16 116.697 22.16C114.254 22.16 113.033 21.0933 113.033 18.96V17.008H112.409V13.024C112.868 12.8853 113.273 12.6293 113.625 12.256C113.977 11.8827 114.217 11.5467 114.345 11.248L114.537 10.784H118.553V12.544H119.689V17.008H118.249ZM130.937 10.784C131.812 10.784 132.628 10.8427 133.385 10.96C134.153 11.0667 134.703 11.1787 135.033 11.296L135.513 11.472V16.048C134.649 15.6533 133.465 15.456 131.961 15.456V15.872C133.348 15.9787 134.345 16.256 134.953 16.704C135.561 17.152 135.865 17.8293 135.865 18.736C135.865 19.824 135.423 20.6667 134.537 21.264C133.652 21.8613 132.287 22.16 130.441 22.16C129.385 22.16 128.452 22.1013 127.641 21.984C126.831 21.856 126.287 21.7333 126.009 21.616L125.577 21.424V17.44C125.673 17.4827 125.817 17.5413 126.009 17.616C126.201 17.6907 126.628 17.7867 127.289 17.904C127.961 18.0213 128.681 18.08 129.449 18.08V17.696C128.148 17.6 127.167 17.3227 126.505 16.864C125.844 16.4053 125.513 15.6053 125.513 14.464C125.513 13.3227 125.967 12.4267 126.873 11.776C127.78 11.1147 129.135 10.784 130.937 10.784ZM142.448 17.008V17.728H143.888V21.504C143.835 21.5573 143.744 21.6213 143.616 21.696C143.499 21.76 143.184 21.856 142.672 21.984C142.16 22.1013 141.568 22.16 140.896 22.16C138.453 22.16 137.232 21.0933 137.232 18.96V17.008H136.608V13.024C137.067 12.8853 137.472 12.6293 137.824 12.256C138.176 11.8827 138.416 11.5467 138.544 11.248L138.736 10.784H142.752V12.544H143.888V17.008H142.448ZM150.414 12.544H154.942V22H150.91L150.75 20.832C150.707 20.9493 150.611 21.0933 150.462 21.264C150.313 21.4347 150.153 21.5787 149.982 21.696C149.513 22.0053 148.894 22.16 148.126 22.16C147.081 22.16 146.291 21.872 145.758 21.296C145.235 20.72 144.974 19.888 144.974 18.8V12.544H149.502V17.808C149.502 17.936 149.545 18.048 149.63 18.144C149.726 18.2293 149.838 18.272 149.966 18.272C150.094 18.272 150.201 18.2293 150.286 18.144C150.371 18.048 150.414 17.936 150.414 17.808V12.544ZM165.993 22H161.961L161.801 20.832C161.758 20.9493 161.667 21.0933 161.529 21.264C161.401 21.4347 161.262 21.5787 161.113 21.696C160.718 22.0053 160.211 22.16 159.593 22.16C158.473 22.16 157.598 21.7333 156.969 20.88C156.339 20.0267 156.025 18.8373 156.025 17.312C156.025 15.776 156.345 14.5707 156.985 13.696C157.625 12.8213 158.499 12.384 159.609 12.384C159.95 12.384 160.254 12.4267 160.521 12.512C160.787 12.5867 160.969 12.6613 161.065 12.736L161.209 12.848V10.08H165.993V22ZM160.553 17.152V18.496C160.553 18.6347 160.59 18.7467 160.665 18.832C160.75 18.9173 160.857 18.96 160.985 18.96C161.123 18.96 161.235 18.9173 161.321 18.832C161.417 18.7467 161.465 18.6347 161.465 18.496V17.152C161.465 17.024 161.417 16.9173 161.321 16.832C161.235 16.736 161.129 16.688 161.001 16.688C160.873 16.688 160.766 16.736 160.681 16.832C160.595 16.9173 160.553 17.024 160.553 17.152ZM169.443 13.328C168.633 13.328 168.035 13.168 167.651 12.848C167.267 12.528 167.075 12.016 167.075 11.312C167.075 10.608 167.267 10.1013 167.651 9.792C168.046 9.48267 168.643 9.328 169.443 9.328C171.043 9.328 171.843 9.97333 171.843 11.264C171.843 12 171.646 12.528 171.251 12.848C170.857 13.168 170.254 13.328 169.443 13.328ZM167.075 22V13.696H171.843V22H167.075ZM178.234 22.144H177.594C176.037 22.144 174.869 21.76 174.09 20.992C173.322 20.224 172.938 18.9867 172.938 17.28C172.938 15.5733 173.322 14.3307 174.09 13.552C174.869 12.7733 176.037 12.384 177.594 12.384H178.234C179.792 12.384 180.96 12.7733 181.738 13.552C182.517 14.3307 182.906 15.5733 182.906 17.28C182.906 18.9867 182.517 20.224 181.738 20.992C180.97 21.76 179.802 22.144 178.234 22.144ZM177.466 17.152V18.496C177.466 18.6347 177.504 18.7467 177.578 18.832C177.664 18.9173 177.77 18.96 177.898 18.96C178.037 18.96 178.149 18.9173 178.234 18.832C178.33 18.7467 178.378 18.6347 178.378 18.496V17.152C178.378 17.024 178.33 16.9173 178.234 16.832C178.149 16.736 178.042 16.688 177.914 16.688C177.786 16.688 177.68 16.736 177.594 16.832C177.509 16.9173 177.466 17.024 177.466 17.152Z"
            fill="black" />
    </symbol>
    <symbol id="icon-search" viewBox="0 0 24 24" fill="none" xmlns="http://www.w3.org/2000/svg">
        <path
            d="M11.5 20C16.1944 20 20 16.1944 20 11.5C20 6.80558 16.1944 3 11.5 3C6.80558 3 3 6.80558 3 11.5C3 16.1944 6.80558 20 11.5 20Z"
            stroke="#AAAAAA" stroke-width="2" stroke-linecap="round" stroke-linejoin="round" />
        <path d="M20.9999 21L17.5 17.5001" stroke="#AAAAAA" stroke-width="2" stroke-linecap="round"
            stroke-linejoin="round" />
    </symbol>
    <symbol id="icon-dropdown" viewBox="0 0 16 16" fill="none" xmlns="http://www.w3.org/2000/svg">
        <path fill-rule="evenodd" clip-rule="evenodd"
            d="M5.52864 3.52861C5.78899 3.26826 6.2111 3.26826 6.47145 3.52861L10.4714 7.52861C10.7318 7.78896 10.7318 8.21107 10.4714 8.47141L6.47145 12.4714C6.2111 12.7318 5.78899 12.7318 5.52864 12.4714C5.26829 12.2111 5.26829 11.789 5.52864 11.5286L9.05723 8.00001L5.52864 4.47141C5.26829 4.21107 5.26829 3.78896 5.52864 3.52861Z"
            fill="currentColor" />
    </symbol>
    <symbol id="icon-music" viewBox="0 0 32 32" fill="none" xmlns="http://www.w3.org/2000/svg">
        <path
            d="M22.5 25C24.433 25 26 23.433 26 21.5C26 19.567 24.433 18 22.5 18C20.567 18 19 19.567 19 21.5C19 23.433 20.567 25 22.5 25Z"
            stroke="#FC6D3E" stroke-width="2" stroke-linecap="round" stroke-linejoin="round" />
        <path
            d="M6.5 29C8.433 29 10 27.433 10 25.5C10 23.567 8.433 22 6.5 22C4.567 22 3 23.567 3 25.5C3 27.433 4.567 29 6.5 29Z"
            stroke="#FC6D3E" stroke-width="2" stroke-linecap="round" stroke-linejoin="round" />
        <path d="M26 10L10 14" stroke="#FC6D3E" stroke-width="2" stroke-linecap="round"
            stroke-linejoin="round" />
        <path d="M10 25.5V8L26 4V21.5" stroke="#FC6D3E" stroke-width="2" stroke-linecap="round"
            stroke-linejoin="round" />
    </symbol>
    <symbol id="icon-calendar" viewBox="0 0 16 16" fill="none" xmlns="http://www.w3.org/2000/svg">
        <path
            d="M13 2.5H3C2.72386 2.5 2.5 2.72386 2.5 3V13C2.5 13.2761 2.72386 13.5 3 13.5H13C13.2761 13.5 13.5 13.2761 13.5 13V3C13.5 2.72386 13.2761 2.5 13 2.5Z"
            stroke="#A4A4A4" stroke-linecap="round" stroke-linejoin="round" />
        <path d="M11 1.5V3.5" stroke="#A4A4A4" stroke-linecap="round" stroke-linejoin="round" />
        <path d="M5 1.5V3.5" stroke="#A4A4A4" stroke-linecap="round" stroke-linejoin="round" />
        <path d="M2.5 5.5H13.5" stroke="#A4A4A4" stroke-linecap="round" stroke-linejoin="round" />
    </symbol>
    <symbol id="icon-clock" viewBox="0 0 16 16" fill="none" xmlns="http://www.w3.org/2000/svg">
        <path
            d="M8 14C11.3137 14 14 11.3137 14 8C14 4.68629 11.3137 2 8 2C4.68629 2 2 4.68629 2 8C2 11.3137 4.68629 14 8 14Z"
            stroke="#A4A4A4" stroke-miterlimit="10" />
        <path d="M8 4.5V8H11.5" stroke="#A4A4A4" stroke-linecap="round" stroke-linejoin="round" />
    </symbol>
    <symbol id="icon-heart" viewBox="0 0 24 24" fill="none" xmlns="http://www.w3.org/2000/svg">
        <path
            d="M16.5022 3.00001C15.6291 2.99851 14.7677 3.20077 13.9865 3.59072C13.2052 3.98066 12.5258 4.54752 12.0022 5.24621C11.293 4.30266 10.3051 3.606 9.17823 3.25482C8.05134 2.90365 6.84256 2.91573 5.72291 3.28936C4.60327 3.663 3.62948 4.37926 2.93932 5.3368C2.24916 6.29434 1.8776 7.44467 1.8772 8.62501C1.8772 15.3621 11.2373 20.6813 11.6357 20.9044C11.7477 20.9671 11.8739 21 12.0022 21C12.1305 21 12.2567 20.9671 12.3687 20.9044C14.0902 19.8961 15.7059 18.7173 17.1914 17.3856C20.4665 14.438 22.1272 11.4905 22.1272 8.62501C22.1255 7.13368 21.5323 5.70393 20.4778 4.6494C19.4233 3.59487 17.9935 3.0017 16.5022 3.00001V3.00001Z"
            fill="currentColor" />
    </symbol>
    <symbol id="icon-details" viewBox="0 0 23 4" fill="none" xmlns="http://www.w3.org/2000/svg">
        <circle cx="2" cy="2" r="2" fill="#C4C4C4" />
        <circle cx="11.5" cy="2" r="2" fill="#C4C4C4" />
        <circle cx="21" cy="2" r="2" fill="#C4C4C4" />
    </symbol>
    <symbol id="icon-player-left" viewBox="0 0 16 16" fill="none" xmlns="http://www.w3.org/2000/svg">
        <path
            d="M3.5 2C3.63261 2 3.75978 2.05268 3.85355 2.14645C3.94732 2.24022 4 2.36739 4 2.5V7.10846L11.4786 2.53821C11.6302 2.44558 11.8037 2.39501 11.9813 2.39169C12.1589 2.38838 12.3342 2.43244 12.4892 2.51934C12.6441 2.60624 12.7731 2.73285 12.8629 2.88615C12.9527 3.03944 13 3.21389 13 3.39154V12.6085C12.9999 12.7861 12.9526 12.9605 12.8628 13.1137C12.773 13.267 12.644 13.3936 12.489 13.4805C12.3341 13.5674 12.1588 13.6114 11.9812 13.6081C11.8036 13.6048 11.6301 13.5543 11.4785 13.4618L4 8.89151V13.5C4 13.6326 3.94732 13.7598 3.85355 13.8536C3.75979 13.9473 3.63261 14 3.5 14C3.36739 14 3.24021 13.9473 3.14645 13.8536C3.05268 13.7598 3 13.6326 3 13.5V2.5C3 2.36739 3.05268 2.24022 3.14645 2.14645C3.24022 2.05268 3.36739 2 3.5 2Z"
            fill="currentColor" />
    </symbol>
    <symbol id="icon-player-middle" viewBox="0 0 40 40" fill="none"
        xmlns="http://www.w3.org/2000/svg">
        <rect width="40" height="40" rx="20" fill="#AAAAAA" />
        <path
            d="M27.0385 21.4138C26.9679 21.4862 26.7012 21.7962 26.4528 22.0512C24.9963 23.655 21.197 26.28 19.2085 27.0813C18.9065 27.21 18.143 27.4825 17.735 27.5C17.3441 27.5 16.9715 27.41 16.6159 27.2275C16.1727 26.9725 15.8171 26.5713 15.6223 26.0975C15.4968 25.7688 15.302 24.785 15.302 24.7675C15.1072 23.6913 15 21.9425 15 20.01C15 18.1688 15.1072 16.4913 15.2667 15.3988C15.2849 15.3812 15.4798 14.1588 15.6929 13.74C16.0838 12.975 16.8473 12.5 17.6644 12.5H17.735C18.2672 12.5187 19.3863 12.9938 19.3863 13.0113C21.2677 13.8138 24.9793 16.31 26.471 17.9688C26.471 17.9688 26.8911 18.395 27.0738 18.6613C27.3587 19.0437 27.5 19.5175 27.5 19.9913C27.5 20.52 27.3405 21.0125 27.0385 21.4138Z"
            fill="currentColor" />
    </symbol>
    <symbol id="icon-player-right" viewBox="0 0 16 16" fill="none"
        xmlns="http://www.w3.org/2000/svg">
        <path
            d="M13 2.5V13.5C13 13.6326 12.9473 13.7598 12.8536 13.8536C12.7598 13.9473 12.6326 14 12.5 14C12.3674 14 12.2402 13.9473 12.1464 13.8536C12.0527 13.7598 12 13.6326 12 13.5V8.89151L4.52148 13.4618C4.36989 13.5544 4.19636 13.605 4.01873 13.6083C3.84111 13.6116 3.6658 13.5676 3.51085 13.4807C3.3559 13.3938 3.2269 13.2672 3.13711 13.1139C3.04733 12.9606 3 12.7861 3 12.6085V3.39154C3 3.21389 3.04732 3.03944 3.1371 2.88615C3.22688 2.73285 3.35588 2.60624 3.51082 2.51934C3.66576 2.43243 3.84106 2.38837 4.01868 2.39169C4.1963 2.39501 4.36983 2.44558 4.52142 2.53821L12 7.10846V2.5C12 2.36739 12.0527 2.24021 12.1464 2.14645C12.2402 2.05268 12.3674 2 12.5 2C12.6326 2 12.7598 2.05268 12.8536 2.14645C12.9473 2.24021 13 2.36739 13 2.5Z"
            fill="currentColor" />
    </symbol>
    <symbol id="icon-volume" viewBox="0 0 16 16" fill="none" xmlns="http://www.w3.org/2000/svg">
        <path
            d="M5 10.5H2C1.86739 10.5 1.74021 10.4473 1.64645 10.3536C1.55268 10.2598 1.5 10.1326 1.5 10V6C1.5 5.86739 1.55268 5.74021 1.64645 5.64645C1.74021 5.55268 1.86739 5.5 2 5.5H5L9.5 2V14L5 10.5Z"
            stroke="currentColor" stroke-linecap="round" stroke-linejoin="round" />
        <path d="M5 5.5V10.5" stroke="currentColor" stroke-linecap="round" stroke-linejoin="round" />
        <path
            d="M11.9124 6.58582C12.0981 6.77153 12.2454 6.99201 12.3459 7.23466C12.4464 7.47731 12.4981 7.73739 12.4981 8.00003C12.4981 8.26267 12.4464 8.52274 12.3459 8.7654C12.2454 9.00805 12.0981 9.22853 11.9124 9.41424"
            stroke="currentColor" stroke-linecap="round" stroke-linejoin="round" />
    </symbol>
    <symbol id="icon-play" viewBox="0 0 24 24" fill="none" xmlns="http://www.w3.org/2000/svg">
        <path
            d="M21.3889 11.36L7.8911 3.11111C7.77741 3.04163 7.64726 3.00369 7.51404 3.0012C7.38083 2.9987 7.24935 3.03174 7.13314 3.09692C7.01692 3.16209 6.92017 3.25705 6.85283 3.37202C6.7855 3.48699 6.75 3.61783 6.75 3.75107V20.2489C6.75 20.3822 6.7855 20.513 6.85283 20.628C6.92017 20.743 7.01692 20.8379 7.13314 20.9031C7.24935 20.9683 7.38083 21.0013 7.51404 20.9988C7.64726 20.9963 7.77741 20.9584 7.8911 20.8889L21.3889 12.64C21.4985 12.573 21.5891 12.4789 21.652 12.3669C21.7148 12.2548 21.7478 12.1285 21.7478 12C21.7478 11.8715 21.7148 11.7452 21.652 11.6331C21.5891 11.5211 21.4985 11.427 21.3889 11.36Z"
            stroke="currentColor" stroke-width="2" stroke-linecap="round" stroke-linejoin="round" />
    </symbol>


</svg>